<mxfile host="65bd71144e">
    <diagram id="mJXNyY7nIPmPbSS4mhjI" name="Page-1">
        <mxGraphModel dx="1373" dy="1078" grid="0" gridSize="10" guides="1" tooltips="1" connect="1" arrows="1" fold="1" page="1" pageScale="1" pageWidth="850" pageHeight="1100" background="#FFFFFF" math="0" shadow="0">
            <root>
                <mxCell id="0"/>
                <mxCell id="1" parent="0"/>
                <mxCell id="66" value="" style="group" vertex="1" connectable="0" parent="1">
                    <mxGeometry x="20" y="99" width="796" height="972" as="geometry"/>
                </mxCell>
                <mxCell id="2" value="App" style="swimlane;fontStyle=0;align=center;verticalAlign=top;childLayout=stackLayout;horizontal=1;startSize=26;horizontalStack=0;resizeParent=1;resizeLast=0;collapsible=1;marginBottom=0;rounded=0;shadow=0;strokeWidth=1;fontColor=#000000;strokeColor=#000000;" parent="66" vertex="1">
                    <mxGeometry x="252.25727272727272" y="116" width="192.96969696969697" height="87.17488789237669" as="geometry">
                        <mxRectangle x="230" y="140" width="160" height="26" as="alternateBounds"/>
                    </mxGeometry>
                </mxCell>
                <mxCell id="6" value="" style="line;html=1;strokeWidth=1;align=left;verticalAlign=middle;spacingTop=-1;spacingLeft=3;spacingRight=3;rotatable=0;labelPosition=right;points=[];portConstraint=eastwest;fontColor=#000000;strokeColor=#000000;" parent="2" vertex="1">
                    <mxGeometry y="26" width="192.96969696969697" height="8.71748878923767" as="geometry"/>
                </mxCell>
                <mxCell id="54" value="+ main(args: String[]): void" style="text;align=left;verticalAlign=top;spacingLeft=4;spacingRight=4;overflow=hidden;rotatable=0;points=[[0,0.5],[1,0.5]];portConstraint=eastwest;fontColor=#000000;strokeColor=#000000;" vertex="1" parent="2">
                    <mxGeometry y="34.71748878923767" width="192.96969696969697" height="28.331838565022423" as="geometry"/>
                </mxCell>
                <mxCell id="8" value="Observer" style="swimlane;fontStyle=0;align=center;verticalAlign=top;childLayout=stackLayout;horizontal=1;startSize=26;horizontalStack=0;resizeParent=1;resizeLast=0;collapsible=1;marginBottom=0;rounded=0;shadow=0;strokeWidth=1;fillColor=#f0a30a;strokeColor=#000000;fontColor=#000000;" parent="66" vertex="1">
                    <mxGeometry x="108.54545454545455" y="655.9910313901347" width="192.96969696969697" height="65.38116591928252" as="geometry">
                        <mxRectangle x="130" y="380" width="160" height="26" as="alternateBounds"/>
                    </mxGeometry>
                </mxCell>
                <mxCell id="11" value="" style="line;html=1;strokeWidth=1;align=left;verticalAlign=middle;spacingTop=-1;spacingLeft=3;spacingRight=3;rotatable=0;labelPosition=right;points=[];portConstraint=eastwest;fontColor=#000000;strokeColor=#000000;" parent="8" vertex="1">
                    <mxGeometry y="26" width="192.96969696969697" height="8.71748878923767" as="geometry"/>
                </mxCell>
                <mxCell id="13" value=" + update(price: float): void" style="text;align=left;verticalAlign=top;spacingLeft=4;spacingRight=4;overflow=hidden;rotatable=0;points=[[0,0.5],[1,0.5]];portConstraint=eastwest;fontColor=#000000;strokeColor=#000000;" parent="8" vertex="1">
                    <mxGeometry y="34.71748878923767" width="192.96969696969697" height="28.331838565022426" as="geometry"/>
                </mxCell>
                <mxCell id="15" value="Subject" style="swimlane;fontStyle=0;align=center;verticalAlign=top;childLayout=stackLayout;horizontal=1;startSize=26;horizontalStack=0;resizeParent=1;resizeLast=0;collapsible=1;marginBottom=0;rounded=0;shadow=0;strokeWidth=1;fillColor=#f0a30a;fontColor=#000000;strokeColor=#000000;" parent="66" vertex="1">
                    <mxGeometry x="482.42424242424244" y="651.6322869955156" width="283.42424242424244" height="98.07174887892376" as="geometry">
                        <mxRectangle x="340" y="380" width="170" height="26" as="alternateBounds"/>
                    </mxGeometry>
                </mxCell>
                <mxCell id="17" value="" style="line;html=1;strokeWidth=1;align=left;verticalAlign=middle;spacingTop=-1;spacingLeft=3;spacingRight=3;rotatable=0;labelPosition=right;points=[];portConstraint=eastwest;fontColor=#000000;strokeColor=#000000;" parent="15" vertex="1">
                    <mxGeometry y="26" width="283.42424242424244" height="8.71748878923767" as="geometry"/>
                </mxCell>
                <mxCell id="16" value="+ addObserver(observer: Observer): void" style="text;align=left;verticalAlign=top;spacingLeft=4;spacingRight=4;overflow=hidden;rotatable=0;points=[[0,0.5],[1,0.5]];portConstraint=eastwest;fontColor=#000000;strokeColor=#000000;" parent="15" vertex="1">
                    <mxGeometry y="34.71748878923767" width="283.42424242424244" height="23.973094170403588" as="geometry"/>
                </mxCell>
                <mxCell id="57" value="+ notifyAllObserver(): void&#10;&#10;" style="text;align=left;verticalAlign=top;spacingLeft=4;spacingRight=4;overflow=hidden;rotatable=0;points=[[0,0.5],[1,0.5]];portConstraint=eastwest;fontColor=#000000;strokeColor=#000000;" vertex="1" parent="15">
                    <mxGeometry y="58.69058295964126" width="283.42424242424244" height="23.973094170403588" as="geometry"/>
                </mxCell>
                <mxCell id="63" style="edgeStyle=none;html=1;exitX=1;exitY=0.25;exitDx=0;exitDy=0;entryX=0;entryY=0.25;entryDx=0;entryDy=0;endArrow=block;endFill=1;fontColor=#000000;strokeColor=#000000;" edge="1" parent="66" source="8" target="15">
                    <mxGeometry relative="1" as="geometry"/>
                </mxCell>
                <mxCell id="52" style="edgeStyle=none;html=1;entryX=0.5;entryY=0;entryDx=0;entryDy=0;endArrow=block;endFill=0;fontColor=#000000;strokeColor=#000000;" edge="1" parent="66" source="37" target="15">
                    <mxGeometry relative="1" as="geometry"/>
                </mxCell>
                <mxCell id="32" value="StockExchange" style="swimlane;fontStyle=0;align=center;verticalAlign=top;childLayout=stackLayout;horizontal=1;startSize=26;horizontalStack=0;resizeParent=1;resizeLast=0;collapsible=1;marginBottom=0;rounded=0;shadow=0;strokeWidth=1;fontColor=#000000;strokeColor=#000000;" vertex="1" parent="66">
                    <mxGeometry x="201" y="274" width="295.48" height="256.2278923766816" as="geometry">
                        <mxRectangle x="130" y="380" width="160" height="26" as="alternateBounds"/>
                    </mxGeometry>
                </mxCell>
                <mxCell id="58" value="- price: floatÂ " style="text;align=left;verticalAlign=top;spacingLeft=4;spacingRight=4;overflow=hidden;rotatable=0;points=[[0,0.5],[1,0.5]];portConstraint=eastwest;fontStyle=0;fontColor=#000000;strokeColor=#000000;" vertex="1" parent="32">
                    <mxGeometry y="26" width="295.48" height="28.33" as="geometry"/>
                </mxCell>
                <mxCell id="59" value="- random: Random" style="text;align=left;verticalAlign=top;spacingLeft=4;spacingRight=4;overflow=hidden;rotatable=0;points=[[0,0.5],[1,0.5]];portConstraint=eastwest;fontStyle=0;fontColor=#000000;strokeColor=#000000;" vertex="1" parent="32">
                    <mxGeometry y="54.33" width="295.48" height="28.331838565022423" as="geometry"/>
                </mxCell>
                <mxCell id="60" value="- observers: List&lt;Observer&gt;" style="text;align=left;verticalAlign=top;spacingLeft=4;spacingRight=4;overflow=hidden;rotatable=0;points=[[0,0.5],[1,0.5]];portConstraint=eastwest;fontStyle=0;fontColor=#000000;strokeColor=#000000;" vertex="1" parent="32">
                    <mxGeometry y="82.66183856502242" width="295.48" height="28.331838565022423" as="geometry"/>
                </mxCell>
                <mxCell id="35" value="" style="line;html=1;strokeWidth=1;align=left;verticalAlign=middle;spacingTop=-1;spacingLeft=3;spacingRight=3;rotatable=0;labelPosition=right;points=[];portConstraint=eastwest;fontColor=#000000;strokeColor=#000000;" vertex="1" parent="32">
                    <mxGeometry y="110.99367713004484" width="295.48" height="21.01" as="geometry"/>
                </mxCell>
                <mxCell id="36" value=" + StockExchange()" style="text;align=left;verticalAlign=top;spacingLeft=4;spacingRight=4;overflow=hidden;rotatable=0;points=[[0,0.5],[1,0.5]];portConstraint=eastwest;fontStyle=0;fontColor=#000000;strokeColor=#000000;" vertex="1" parent="32">
                    <mxGeometry y="132.00367713004485" width="295.48" height="28.331838565022423" as="geometry"/>
                </mxCell>
                <mxCell id="61" value="+ addObserver(observer: Observer): void" style="text;align=left;verticalAlign=top;spacingLeft=4;spacingRight=4;overflow=hidden;rotatable=0;points=[[0,0.5],[1,0.5]];portConstraint=eastwest;fontStyle=0;fontColor=#000000;strokeColor=#000000;" vertex="1" parent="32">
                    <mxGeometry y="160.33551569506727" width="295.48" height="28.331838565022423" as="geometry"/>
                </mxCell>
                <mxCell id="62" value=" + notifyAllObserver(): void" style="text;align=left;verticalAlign=top;spacingLeft=4;spacingRight=4;overflow=hidden;rotatable=0;points=[[0,0.5],[1,0.5]];portConstraint=eastwest;fontStyle=0;fontColor=#000000;strokeColor=#000000;" vertex="1" parent="32">
                    <mxGeometry y="188.6673542600897" width="295.48" height="28.331838565022423" as="geometry"/>
                </mxCell>
                <mxCell id="37" value="+ start(): void&#10;&#10;" style="text;align=left;verticalAlign=top;spacingLeft=4;spacingRight=4;overflow=hidden;rotatable=0;points=[[0,0.5],[1,0.5]];portConstraint=eastwest;fontColor=#000000;strokeColor=#000000;" vertex="1" parent="32">
                    <mxGeometry y="216.99919282511212" width="295.48" height="39.228699551569505" as="geometry"/>
                </mxCell>
                <mxCell id="50" style="edgeStyle=none;html=1;exitX=0.5;exitY=0;exitDx=0;exitDy=0;entryX=0.296;entryY=1.026;entryDx=0;entryDy=0;entryPerimeter=0;endArrow=block;endFill=0;fontColor=#000000;strokeColor=#000000;" edge="1" parent="66" source="38" target="13">
                    <mxGeometry relative="1" as="geometry"/>
                </mxCell>
                <mxCell id="38" value="SellStockListener" style="swimlane;fontStyle=0;align=center;verticalAlign=top;childLayout=stackLayout;horizontal=1;startSize=26;horizontalStack=0;resizeParent=1;resizeLast=0;collapsible=1;marginBottom=0;rounded=0;shadow=0;strokeWidth=1;fontColor=#000000;strokeColor=#000000;" vertex="1" parent="66">
                    <mxGeometry x="27.03" y="775" width="192.97" height="76.28" as="geometry">
                        <mxRectangle x="130" y="380" width="160" height="26" as="alternateBounds"/>
                    </mxGeometry>
                </mxCell>
                <mxCell id="41" value="" style="line;html=1;strokeWidth=1;align=left;verticalAlign=middle;spacingTop=-1;spacingLeft=3;spacingRight=3;rotatable=0;labelPosition=right;points=[];portConstraint=eastwest;fontColor=#000000;strokeColor=#000000;" vertex="1" parent="38">
                    <mxGeometry y="26" width="192.97" height="8.717488789237672" as="geometry"/>
                </mxCell>
                <mxCell id="42" value="+ update(price: float): void" style="text;align=left;verticalAlign=top;spacingLeft=4;spacingRight=4;overflow=hidden;rotatable=0;points=[[0,0.5],[1,0.5]];portConstraint=eastwest;fontStyle=0;fontColor=#000000;strokeColor=#000000;" vertex="1" parent="38">
                    <mxGeometry y="34.71748878923767" width="192.97" height="28.331838565022426" as="geometry"/>
                </mxCell>
                <mxCell id="51" style="edgeStyle=none;html=1;exitX=0.5;exitY=0;exitDx=0;exitDy=0;entryX=0.608;entryY=1.026;entryDx=0;entryDy=0;entryPerimeter=0;endArrow=block;endFill=0;fontColor=#000000;strokeColor=#000000;" edge="1" parent="66" source="44" target="13">
                    <mxGeometry relative="1" as="geometry"/>
                </mxCell>
                <mxCell id="44" value="BuyStockListener" style="swimlane;fontStyle=0;align=center;verticalAlign=top;childLayout=stackLayout;horizontal=1;startSize=26;horizontalStack=0;resizeParent=1;resizeLast=0;collapsible=1;marginBottom=0;rounded=0;shadow=0;strokeWidth=1;fontColor=#000000;strokeColor=#000000;" vertex="1" parent="66">
                    <mxGeometry x="258.0009090909091" y="775.0019730941704" width="192.96969696969697" height="76.2780269058296" as="geometry">
                        <mxRectangle x="130" y="380" width="160" height="26" as="alternateBounds"/>
                    </mxGeometry>
                </mxCell>
                <mxCell id="47" value="" style="line;html=1;strokeWidth=1;align=left;verticalAlign=middle;spacingTop=-1;spacingLeft=3;spacingRight=3;rotatable=0;labelPosition=right;points=[];portConstraint=eastwest;fontColor=#000000;strokeColor=#000000;" vertex="1" parent="44">
                    <mxGeometry y="26" width="192.96969696969697" height="8.717488789237672" as="geometry"/>
                </mxCell>
                <mxCell id="48" value="+ update(price: float): void" style="text;align=left;verticalAlign=top;spacingLeft=4;spacingRight=4;overflow=hidden;rotatable=0;points=[[0,0.5],[1,0.5]];portConstraint=eastwest;fontStyle=0;fontColor=#000000;strokeColor=#000000;" vertex="1" parent="44">
                    <mxGeometry y="34.71748878923767" width="192.96969696969697" height="28.331838565022426" as="geometry"/>
                </mxCell>
                <mxCell id="53" style="edgeStyle=none;html=1;endArrow=block;endFill=1;dashed=1;exitX=0.5;exitY=1;exitDx=0;exitDy=0;fontColor=#000000;strokeColor=#000000;" edge="1" parent="66" source="2" target="32">
                    <mxGeometry relative="1" as="geometry">
                        <mxPoint x="313.57575757575756" y="65.38116591928252" as="sourcePoint"/>
                        <Array as="points"/>
                    </mxGeometry>
                </mxCell>
                <mxCell id="64" value="Objeto que estÃ¡ sendo monitorado(observado)" style="text;align=left;verticalAlign=top;spacingLeft=4;spacingRight=4;overflow=hidden;rotatable=0;points=[[0,0.5],[1,0.5]];portConstraint=eastwest;fontColor=#000000;strokeColor=none;" vertex="1" parent="66">
                    <mxGeometry x="470.3636363636364" y="760.6008968609866" width="325.6363636363636" height="54.48430493273542" as="geometry"/>
                </mxCell>
                <mxCell id="65" value="Objeto que estÃ¡ monitorando as mudanÃ§as do Subject" style="text;align=left;verticalAlign=bottom;spacingLeft=4;spacingRight=4;overflow=hidden;rotatable=0;points=[[0,0.5],[1,0.5]];portConstraint=eastwest;fontColor=#000000;strokeColor=#FFFFFF;" vertex="1" parent="66">
                    <mxGeometry x="65.0330303030303" y="605.0035874439462" width="385.93939393939394" height="43.587443946188344" as="geometry"/>
                </mxCell>
                <mxCell id="67" value="Observer" style="text;align=center;verticalAlign=middle;spacingLeft=4;spacingRight=4;overflow=hidden;rotatable=0;points=[[0,0.5],[1,0.5]];portConstraint=eastwest;fontColor=#000000;strokeColor=#FFFFFF;fontSize=15;" vertex="1" parent="66">
                    <mxGeometry x="205.0330303030303" y="18.00358744394623" width="385.93939393939394" height="43.587443946188344" as="geometry"/>
                </mxCell>
            </root>
        </mxGraphModel>
    </diagram>
</mxfile>